<?xml version="1.0" standalone="no"?>
<!DOCTYPE svg PUBLIC "-//W3C//DTD SVG 20010904//EN"
 "http://www.w3.org/TR/2001/REC-SVG-20010904/DTD/svg10.dtd">
<svg version="1.0" xmlns="http://www.w3.org/2000/svg"
 width="40.000000pt" height="40.000000pt" viewBox="0 0 40.000000 40.000000"
 preserveAspectRatio="xMidYMid meet">
<metadata>
Created by potrace 1.13, written by Peter Selinger 2001-2015
</metadata>
<g transform="translate(0.000000,40.000000) scale(0.100000,-0.100000)"
fill="#000000" stroke="none">
<path d="M110 378 c-99 -53 -138 -173 -88 -268 53 -99 173 -138 268 -88 99 53
138 173 88 268 -53 99 -173 138 -268 88z m78 -110 c7 -26 15 -33 54 -43 100
-25 103 -64 10 -112 -70 -36 -140 -44 -162 -18 -14 17 -5 181 10 190 5 3 17
-7 28 -22 l20 -28 -5 29 c-4 18 -1 31 8 36 18 12 27 4 37 -32z"/>
</g>
</svg>
